<?xml version="1.0" encoding="UTF-8" standalone="no"?>
<!-- Created with Inkscape (http://www.inkscape.org/) -->

<svg
   width="24.456919mm"
   height="20.57181mm"
   viewBox="0 0 22.233563 18.701646"
   version="1.1"
   id="svg1"
   xml:space="preserve"
   sodipodi:docname="globe-fin.svg"
   inkscape:version="1.4.3 (0d15f750, 2025-12-25)"
   xmlns:inkscape="http://www.inkscape.org/namespaces/inkscape"
   xmlns:sodipodi="http://sodipodi.sourceforge.net/DTD/sodipodi-0.dtd"
   xmlns="http://www.w3.org/2000/svg"
   xmlns:svg="http://www.w3.org/2000/svg"><sodipodi:namedview
     id="namedview1"
     pagecolor="#ffffff"
     bordercolor="#000000"
     borderopacity="0.25"
     inkscape:showpageshadow="false"
     inkscape:pageopacity="0.0"
     inkscape:pagecheckerboard="true"
     inkscape:deskcolor="#d1d1d1"
     inkscape:document-units="mm"
     inkscape:zoom="6.6996284"
     inkscape:cx="31.643546"
     inkscape:cy="45.599544"
     inkscape:window-width="1172"
     inkscape:window-height="894"
     inkscape:window-x="0"
     inkscape:window-y="25"
     inkscape:window-maximized="0"
     inkscape:current-layer="svg1"
     inkscape:antialias-rendering="true"
     showborder="false"
     borderlayer="false" /><defs
     id="defs1"><linearGradient
       id="swatch155"><stop
         style="stop-color:#1d1d1d;stop-opacity:1;"
         offset="0"
         id="stop155" /></linearGradient><linearGradient
       id="swatch140"><stop
         style="stop-color:#ffc7c7;stop-opacity:1;"
         offset="0"
         id="stop140" /></linearGradient></defs><path
     id="path39"
     style="fill:#ff9955;stroke:none;stroke-width:0.14731"
     d="m 4.4095794,13.898483 c -0.018673,0.0037 -0.037139,0.0078 -0.055788,0.01168 -0.00461,0.0024 -0.00793,0.0049 -0.00947,0.0068 v 4.34e-4 l -4.943e-4,4.35e-4 v 4.35e-4 4.34e-4 h 4.943e-4 c 0.00416,0.0041 0.018261,0.0073 0.041342,0.0083 0.026272,10e-4 0.046514,-0.0031 0.053796,-0.0088 h 4.943e-4 l 4.943e-4,-4.34e-4 4.942e-4,-4.34e-4 h 4.942e-4 v -4.36e-4 -4.34e-4 -4.35e-4 -4.35e-4 -4.34e-4 -4.35e-4 l -4.926e-4,-4.34e-4 c -6.889e-4,-0.0014 -0.00188,-0.0036 -0.00299,-0.0049 -0.00603,-0.0058 -0.016131,-0.0092 -0.028392,-0.01023 z" /><path
     id="path38"
     style="fill:#ff9955;stroke:none;stroke-width:0.14731"
     d="m 14.737422,6.2838338 c -0.007,1.451e-4 -0.01354,7.245e-4 -0.02042,0.00104 h 0.01245 0.0044 4.94e-4 c 0.0011,-2.902e-4 0.0019,-7.245e-4 0.003,-0.00104 z m 0.09464,4.352e-4 4.93e-4,4.344e-4 h 4.95e-4 0.0055 0.006 0.0044 0.0044 0.0035 V 6.284269 c -0.0083,3.8e-6 -0.01661,0 -0.02491,0 z m 0.09663,4.344e-4 v 4.343e-4 h 4.95e-4 4.94e-4 4.94e-4 v -4.343e-4 c -4.5e-4,-8.5e-6 -0.0011,7.5e-6 -0.0014,0 z m 0.237099,0.892407 v 4.343e-4 h 4.94e-4 v -4.343e-4 z m -0.626119,0.8982494 c -4.65e-4,4.343e-4 -9.64e-4,0.00104 -0.0014,0.00151 6.89e-4,1.187e-4 0.0013,2.892e-4 0.002,4.343e-4 -1.95e-4,-5.794e-4 -3e-4,-0.00132 -4.95e-4,-0.00198 z" /><path
     id="path28"
     style="fill:#ff9955;stroke:none;stroke-width:0.14731"
     d="m 0,8.0165335 v 4.343e-4 l 4.942e-4,4.353e-4 c 0.00135,0.0017 0.00334,0.00301 0.00498,0.00433 -9.585e-4,-0.00188 -0.00208,-0.00358 -0.00299,-0.00433 H 0.00199 V 8.0169678 H 0.0014957 0.0010015 V 8.0165335 H 5.072e-4 Z m 0.01594,0.059881 v 0.00923 c 1.074e-4,0.00367 -1.08e-5,0.00754 4.942e-4,0.011202 1.947e-4,0.00113 3.445e-4,0.00226 4.943e-4,0.00339 2.096e-4,-0.00773 -4.643e-4,-0.015903 -10e-4,-0.023855 z m -0.00996,0.064752 c -3.296e-4,8.686e-4 -0.00116,0.00151 -0.00149,0.00245 -1.243e-4,2.902e-4 -4.045e-4,7.245e-4 -4.943e-4,0.00104 -2.996e-4,0.00113 -6.74e-4,0.0032 -0.001,0.00433 -1.05e-4,2.902e-4 -3.594e-4,0.00113 -4.942e-4,0.00151 -1.211e-4,0.00217 -1.382e-4,0.0048 -4.942e-4,0.00678 l 4.942e-4,-4.343e-4 c 1.648e-4,-2.902e-4 4.044e-4,-0.00113 4.942e-4,-0.00151 v -4.343e-4 c 0.00119,-0.00452 0.0022,-0.00904 0.00299,-0.013632 z" /><path
     id="path25"
     style="fill:#ff9955;stroke:none;stroke-width:0.14731"
     d="m 14.91126,8.627559 c 1.95e-4,7.245e-4 8.39e-4,0.00141 9.64e-4,0.00198 0.0018,-8.687e-4 0.0036,-0.0017 0.0055,-0.00198 -0.0021,1.7e-5 -0.0044,-5.37e-5 -0.0065,0 z" /><path
     id="path22"
     style="fill:#ff9955;stroke:none;stroke-width:0.14731"
     d="m 14.484384,7.7098354 -4.94e-4,4.343e-4 -4.94e-4,4.353e-4 -4.95e-4,4.343e-4 -4.94e-4,4.343e-4 c -9.29e-4,0.00132 -0.0022,0.00358 -0.003,0.00584 0.002,-0.00367 0.005,-0.00594 0.008,-0.00735 l -4.97e-4,-3.9e-4 h -4.93e-4 -4.95e-4 -4.94e-4 -4.94e-4 z m -0.0085,0.028725 c -3.29e-4,0.00377 -8.08e-4,0.00773 -9.64e-4,0.012172 -8.23e-4,0.019332 0.0011,0.034548 0.0044,0.043818 v -0.017523 -0.012172 -0.00973 -0.00537 c -6.58e-4,-0.00113 -0.0011,-0.00217 -0.0014,-0.00339 -9.63e-4,-0.00245 -0.0017,-0.00528 -0.002,-0.00782 z" /><path
     id="path19"
     style="fill:#ff9955;stroke:none;stroke-width:0.14731"
     d="m 2.1182938,8.7207671 v 4.344e-4 h 4.942e-4 v -4.344e-4 z m 4.942e-4,4.344e-4 v 4.352e-4 h 4.943e-4 4.943e-4 4.941e-4 v -4.352e-4 l -4.941e-4,-4.344e-4 h -4.943e-4 v 4.344e-4 z m 0.00498,4.352e-4 v 4.343e-4 h -4.942e-4 v 4.344e-4 c 6.44e-4,4.352e-4 0.00105,0.00132 0.00149,0.00151 0.00204,0.0016 0.00424,0.00292 0.00598,0.0049 l 4.942e-4,4.343e-4 c 9.137e-4,0.00104 0.00205,0.00236 0.00299,0.00339 7.34e-4,5.803e-4 0.00227,0.00179 0.00299,0.00245 h 4.942e-4 4.943e-4 4.942e-4 4.943e-4 v 4.353e-4 c 1.647e-4,6.21e-5 6.59e-4,2.892e-4 10e-4,4.343e-4 h 4.942e-4 l 4.943e-4,4.343e-4 4.942e-4,4.353e-4 v 4.343e-4 c 2.846e-4,4.343e-4 8.537e-4,0.00132 0.001,0.00151 h 4.942e-4 4.943e-4 l 4.943e-4,4.352e-4 4.942e-4,4.343e-4 c 5.541e-4,7.245e-4 0.00157,0.00207 0.002,0.00292 h 4.943e-4 c 4.793e-4,4.344e-4 0.00147,0.00151 0.002,0.00198 7.339e-4,7.245e-4 0.0018,0.00188 0.00249,0.00245 l 4.943e-4,4.353e-4 h 4.942e-4 4.943e-4 4.943e-4 4.941e-4 l 4.943e-4,4.343e-4 4.942e-4,4.343e-4 4.943e-4,4.353e-4 v 4.343e-4 l 4.943e-4,4.343e-4 h 4.942e-4 l 4.943e-4,4.353e-4 4.941e-4,4.343e-4 h 4.943e-4 l 4.943e-4,4.343e-4 h 4.942e-4 l 4.943e-4,4.353e-4 h 4.942e-4 4.943e-4 4.942e-4 l 4.942e-4,4.343e-4 v 4.353e-4 h 4.943e-4 v 4.343e-4 l 4.942e-4,4.343e-4 h 4.943e-4 4.942e-4 l 4.943e-4,4.353e-4 c 7.339e-4,7.245e-4 0.00152,0.00151 0.002,0.00198 v 4.343e-4 h 4.942e-4 c 0.00148,0.00113 0.0027,0.00245 0.00398,0.00386 0.00135,0.00132 0.00247,0.0032 0.00398,0.00433 0.00161,0.00113 0.00343,0.00217 0.00498,0.00339 0.00178,0.00113 0.00348,0.00236 0.00498,0.00386 h 4.943e-4 4.942e-4 l 4.943e-4,4.352e-4 c 6.89e-4,7.245e-4 0.00191,0.0017 0.00249,0.00245 h 4.943e-4 c 4.343e-4,5.794e-4 0.00159,0.00198 0.002,0.00245 l 4.942e-4,4.352e-4 h 4.943e-4 c 0.00106,8.687e-4 0.00297,0.00245 0.00349,0.00292 h 4.943e-4 4.943e-4 l 4.942e-4,4.353e-4 c 5.392e-4,5.794e-4 0.00157,0.00179 0.002,0.00245 h 4.943e-4 4.942e-4 v 4.353e-4 l 4.943e-4,4.343e-4 c 0.00126,0.00104 0.00226,0.00151 0.00349,0.00245 h 4.942e-4 v 4.343e-4 h 4.943e-4 4.941e-4 4.943e-4 4.943e-4 l 4.942e-4,4.344e-4 4.943e-4,4.352e-4 h 4.942e-4 l 4.943e-4,4.343e-4 v 4.353e-4 h 4.941e-4 4.943e-4 4.943e-4 c 0.00139,0.00104 0.00211,0.0017 0.00299,0.00245 0.00122,8.696e-4 0.00234,0.00188 0.00349,0.00292 h 4.943e-4 l 4.941e-4,4.343e-4 4.943e-4,4.353e-4 4.942e-4,4.343e-4 4.943e-4,4.343e-4 h 4.943e-4 l 4.942e-4,4.353e-4 c 0.0014,8.696e-4 0.0035,0.00292 0.00448,0.00386 h 4.943e-4 4.941e-4 c 4.793e-4,5.794e-4 0.00187,0.00217 0.00249,0.00292 v 4.352e-4 h 4.943e-4 c 1.31e-5,-4.352e-4 0,-0.00104 0,-0.00151 -0.00187,-0.00904 -0.032786,-0.038665 -0.069735,-0.066702 z m 0.1051004,0.099805 v 4.34e-4 h 4.923e-4 v -4.34e-4 z m -4.943e-4,0.0034 -4.943e-4,4.34e-4 h -4.961e-4 v 4.36e-4 h -4.943e-4 v 4.34e-4 h 4.943e-4 4.942e-4 4.943e-4 v -4.34e-4 l 4.943e-4,-4.36e-4 v -4.34e-4 z" /><path
     id="path26"
     style="fill:#ff9955;stroke:none;stroke-width:0.116205"
     d="m 2.4069983,9.1676018 c -0.019051,0.01094 -0.038107,0.02181 -0.057252,0.03259 0.00485,-0.0015 0.00909,-0.0026 0.015581,-0.0049 0.022679,-0.008 0.038364,-0.01884 0.041671,-0.02768 z" /><path
     id="path23"
     style="fill:#ff9955;stroke:none;stroke-width:0.116205"
     d="m 14.883747,9.1553418 c -0.0022,6.71e-4 -0.0054,0.0024 -0.0094,0.0049 0.0024,0.0033 0.0045,0.0062 0.0066,0.0088 0.0037,-0.0051 0.0059,-0.0091 0.0066,-0.01156 2.7e-5,-1.12e-4 -1.2e-5,-5.58e-4 0,-6.7e-4 v -3.34e-4 h -3.72e-4 v -3.35e-4 -3.35e-4 h -3.62e-4 l -3.62e-4,-3.75e-4 h -3.64e-4 -3.62e-4 c -6.1e-5,8e-6 -4.84e-4,6e-6 -7.26e-4,0 h -3.63e-4 c -2.41e-4,5.3e-5 -3.63e-4,-9.5e-5 -7.25e-4,0 z" /><path
     id="path29"
     style="fill:#ff9955;stroke:none;stroke-width:0.116205"
     d="m 14.886026,6.1310443 -3.62e-4,3.355e-4 c 0.0019,5.583e-4 0.0038,0.00123 0.0058,0.00174 -0.0015,-0.00116 -0.0029,-0.00196 -0.004,-0.0021 h -3.7e-4 -3.62e-4 -3.64e-4 z" /><text
     x="192"
     y="152"
     font-family="sans-serif"
     font-size="22px"
     fill="#555555"
     id="text40"
     style="white-space:pre;inline-size:64.0287;display:inline;fill:#b04e4e;fill-opacity:1"
     transform="matrix(0.02321363,0,0,0.02759518,8.4178038,5.3611465)"
     xml:space="preserve"><tspan
       x="192"
       y="152"
       id="tspan2"><tspan
         dx="0 17.316406 13.921875 6.0371094 13.707031 13.212891"
         id="tspan1">Ouidah</tspan></tspan></text><path
     id="path32-0"
     style="fill:#ff9955;stroke:none;stroke-width:0.0419639"
     d="m 22.13845,7.1031097 c -0.0028,5.198e-4 -0.0055,0.00105 -0.0082,0.00161 -8.7e-4,3.974e-4 -0.0018,7.643e-4 -0.0027,0.00108 0.0055,-1.368e-4 0.0094,-0.00121 0.01099,-0.00269 z" /><path
     id="path31-4"
     style="fill:#ff9955;stroke:none;stroke-width:0.0419639"
     d="m 22.233523,7.0913552 c -0.0084,3.836e-4 -0.01692,9.813e-4 -0.02543,0.00174 0.0026,2.947e-4 0.0056,5.366e-4 0.0093,5.366e-4 0.0088,0 0.01439,-9.368e-4 0.01617,-0.00228 z" /><path
     id="path28-1"
     style="fill:#ff9955;stroke:none;stroke-width:0.0419639"
     d="m 21.655416,9.1402594 v 1.282e-4 l 1.36e-4,1.284e-4 c 3.71e-4,5.004e-4 9.18e-4,8.896e-4 0.0014,0.00128 -2.63e-4,-5.559e-4 -5.72e-4,-0.00106 -8.21e-4,-0.00128 h -1.37e-4 v -1.284e-4 h -1.35e-4 -1.37e-4 v -1.282e-4 h -1.35e-4 z m 0.0044,0.017669 v 0.00273 c 3e-5,0.00109 -3e-6,0.00222 1.36e-4,0.0033 5.3e-5,3.336e-4 9.5e-5,6.672e-4 1.36e-4,10e-4 5.8e-5,-0.00228 -1.28e-4,-0.0047 -2.76e-4,-0.00704 z m -0.0027,0.019106 c -9.1e-5,2.563e-4 -3.19e-4,4.448e-4 -4.12e-4,7.227e-4 -3.4e-5,8.57e-5 -1.11e-4,2.139e-4 -1.36e-4,3.058e-4 -8.2e-5,3.336e-4 -1.85e-4,9.451e-4 -2.75e-4,0.00128 -2.9e-5,8.57e-5 -9.9e-5,3.336e-4 -1.37e-4,4.448e-4 -3.3e-5,6.393e-4 -3.7e-5,0.00141 -1.35e-4,0.002 l 1.35e-4,-1.281e-4 c 4.6e-5,-8.56e-5 1.12e-4,-3.336e-4 1.37e-4,-4.447e-4 v -1.283e-4 c 3.25e-4,-0.00133 6.04e-4,-0.00267 8.22e-4,-0.00402 z" /><path
     id="path19-1"
     style="fill:#ff9955;stroke:none;stroke-width:0.0419639"
     d="m 21.892413,9.6976294 v 1.282e-4 h 1.37e-4 v -1.282e-4 z m 1.37e-4,1.282e-4 v 1.284e-4 h 1.35e-4 1.36e-4 1.37e-4 v -1.284e-4 l -1.37e-4,-1.282e-4 h -1.36e-4 v 1.282e-4 z m 0.0014,1.284e-4 v 1.282e-4 h -1.35e-4 v 1.281e-4 c 1.77e-4,1.285e-4 2.89e-4,3.892e-4 4.11e-4,4.448e-4 5.62e-4,4.726e-4 0.0011,8.617e-4 0.0017,0.00145 l 1.36e-4,1.282e-4 c 2.52e-4,3.057e-4 5.64e-4,6.949e-4 8.22e-4,10e-4 2.01e-4,1.712e-4 6.22e-4,5.282e-4 8.21e-4,7.228e-4 h 1.36e-4 1.37e-4 1.35e-4 1.37e-4 v 1.284e-4 c 4.5e-5,1.84e-5 1.8e-4,8.53e-5 2.75e-4,1.282e-4 h 1.35e-4 l 1.37e-4,1.281e-4 1.36e-4,1.285e-4 v 1.281e-4 c 7.8e-5,1.282e-4 2.34e-4,3.892e-4 2.76e-4,4.447e-4 h 1.35e-4 1.36e-4 l 1.37e-4,1.285e-4 1.35e-4,1.281e-4 c 1.52e-4,2.138e-4 4.32e-4,6.116e-4 5.49e-4,8.618e-4 h 1.36e-4 c 1.31e-4,1.282e-4 4.03e-4,4.447e-4 5.49e-4,5.837e-4 2.02e-4,2.138e-4 4.96e-4,5.56e-4 6.83e-4,7.228e-4 l 1.36e-4,1.285e-4 h 1.37e-4 1.35e-4 1.37e-4 1.35e-4 l 1.36e-4,1.281e-4 1.36e-4,1.281e-4 1.36e-4,1.285e-4 v 1.281e-4 l 1.35e-4,1.282e-4 h 1.37e-4 l 1.36e-4,1.284e-4 1.36e-4,1.281e-4 h 1.36e-4 l 1.35e-4,1.281e-4 h 1.37e-4 l 1.35e-4,1.285e-4 h 1.36e-4 1.36e-4 1.36e-4 l 1.37e-4,1.281e-4 v 1.285e-4 h 1.35e-4 v 1.282e-4 l 1.36e-4,1.281e-4 h 1.36e-4 1.36e-4 l 1.35e-4,1.285e-4 c 2.03e-4,2.137e-4 4.19e-4,4.447e-4 5.5e-4,5.837e-4 v 1.281e-4 h 1.35e-4 c 4.09e-4,3.336e-4 7.43e-4,7.228e-4 0.001,0.00114 3.71e-4,3.893e-4 6.79e-4,9.452e-4 0.0011,0.00128 4.43e-4,3.335e-4 9.44e-4,6.393e-4 0.0014,10e-4 4.9e-4,3.335e-4 9.57e-4,6.949e-4 0.0014,0.00114 h 1.36e-4 1.36e-4 l 1.36e-4,1.284e-4 c 1.89e-4,2.137e-4 5.25e-4,5.003e-4 6.84e-4,7.227e-4 h 1.36e-4 c 1.2e-4,1.71e-4 4.37e-4,5.839e-4 5.48e-4,7.228e-4 l 1.37e-4,1.284e-4 h 1.35e-4 c 2.92e-4,2.563e-4 8.17e-4,7.228e-4 9.6e-4,8.618e-4 h 1.36e-4 1.36e-4 l 1.36e-4,1.284e-4 c 1.48e-4,1.709e-4 4.32e-4,5.282e-4 5.49e-4,7.228e-4 h 1.35e-4 1.37e-4 v 1.283e-4 l 1.35e-4,1.282e-4 c 3.47e-4,3.058e-4 6.21e-4,4.448e-4 9.59e-4,7.227e-4 h 1.37e-4 v 1.283e-4 h 1.36e-4 1.36e-4 1.36e-4 1.35e-4 l 1.37e-4,1.281e-4 1.35e-4,1.284e-4 h 1.36e-4 l 1.37e-4,1.281e-4 v 1.285e-4 h 1.35e-4 1.37e-4 1.35e-4 c 3.82e-4,3.058e-4 5.81e-4,5.004e-4 8.22e-4,7.228e-4 3.37e-4,2.566e-4 6.44e-4,5.559e-4 9.6e-4,8.617e-4 h 1.36e-4 l 1.35e-4,1.282e-4 1.37e-4,1.284e-4 1.35e-4,1.282e-4 1.37e-4,1.281e-4 h 1.35e-4 l 1.36e-4,1.284e-4 c 3.85e-4,2.566e-4 9.62e-4,8.617e-4 0.0013,0.00114 h 1.36e-4 1.35e-4 c 1.32e-4,1.709e-4 5.15e-4,6.393e-4 6.84e-4,8.618e-4 v 1.284e-4 h 1.37e-4 c 3e-6,-1.284e-4 0,-3.058e-4 0,-4.448e-4 -5.15e-4,-0.00267 -0.009,-0.011408 -0.01918,-0.019681 z m 0.0289,0.029448 v 1.281e-4 h 1.36e-4 V 9.727334 Z m -1.35e-4,10e-4 -1.37e-4,1.281e-4 h -1.35e-4 v 1.284e-4 h -1.37e-4 v 1.281e-4 h 1.37e-4 1.35e-4 1.36e-4 v -1.281e-4 l 1.36e-4,-1.284e-4 V 9.728334 Z" /><path
     id="path26-8"
     style="fill:#ff9955;stroke:none;stroke-width:0.0331032"
     d="m 21.971815,9.8294727 c -0.0052,0.0032 -0.01048,0.0064 -0.01574,0.0096 0.0014,-4.45e-4 0.0025,-7.78e-4 0.0043,-0.0015 0.0063,-0.0024 0.01055,-0.0056 0.01146,-0.0082 z" /><path
     style="fill:none;fill-opacity:1;stroke:none;stroke-width:1.59055;stroke-dasharray:none;stroke-dashoffset:0;stroke-opacity:1"
     d="M 6.5041062,9.2579788 C 6.4677173,11.171785 6.4677173,11.171785 6.4677173,11.171785"
     id="path108" /><ellipse
     style="fill:#1e408a;fill-opacity:1;stroke:none;stroke-width:0.0683902;stroke-dasharray:none;stroke-opacity:1"
     id="path58"
     cx="9.8671484"
     cy="9.6278868"
     rx="8.066946"
     ry="7.8889914" /><path
     id="path82"
     style="fill:#ffffff;fill-opacity:1;stroke:none;stroke-width:0.141844;stroke-opacity:1"
     d="m 14.023593,4.6771157 c -0.07183,0.3738178 -0.07183,0.6098755 0,0.9836915 0.696074,3.6239666 6.042166,1.7946585 4.541175,-1.5597488 -0.978393,-2.1865011 -4.085226,-1.7976385 -4.541175,0.5760573 z"
     sodipodi:nodetypes="ccsc" /><path
     style="fill:none;fill-opacity:1;stroke:none;stroke-width:0.317985;stroke-dasharray:none;stroke-dashoffset:0;stroke-opacity:1"
     d="M 8.4894717,-1.1847672 C 8.2408723,9.1089928 8.2408723,9.1089928 8.2408723,9.1089928 L 18.0606,9.2950248"
     id="path97" /><g
     id="g152"
     transform="matrix(1.5130857,0,0,1.2218004,-26.520958,-6.9482816)"><path
       style="fill:#ff1515;fill-opacity:1;stroke-width:0.158887"
       d="m 21.694291,13.525667 c -0.0014,-0.0044 -0.0059,-0.02271 -0.0098,-0.04082 -0.02268,-0.103419 -0.06594,-0.205175 -0.153522,-0.361092 -0.08763,-0.15599 -0.107185,-0.203965 -0.112534,-0.276022 -0.0094,-0.125934 0.05405,-0.247673 0.157917,-0.303242 0.127208,-0.06805 0.278308,-0.01962 0.354164,0.113507 0.03857,0.06769 0.05283,0.150362 0.03889,0.225473 -0.0082,0.04461 -0.03731,0.115807 -0.07444,0.182492 -0.08291,0.148926 -0.101199,0.183525 -0.122155,0.231169 -0.02831,0.06435 -0.05096,0.1307 -0.06516,0.190925 -0.0059,0.02502 -0.0119,0.04195 -0.01333,0.03762 z m 0.02402,-0.594046 c 0.0488,-0.01199 0.08231,-0.06576 0.07709,-0.123713 -0.0097,-0.108021 -0.13662,-0.140111 -0.184545,-0.04667 -0.0351,0.06843 -0.0036,0.152123 0.0644,0.17109 0.0195,0.0054 0.01793,0.0055 0.04305,-7.36e-4 z"
       id="path148" /><ellipse
       style="fill:#ffffff;fill-opacity:1;stroke:#e3e3e3;stroke-width:0;stroke-linejoin:round;stroke-dasharray:none;stroke-dashoffset:0;stroke-opacity:1"
       id="path152"
       cx="21.697414"
       cy="12.821358"
       rx="0.11225746"
       ry="0.12201899" /></g><g
     id="g161"
     transform="matrix(1.7227027,0,0,1.4227303,-26.366264,-3.9012834)"><path
       style="fill:#ff1515;fill-opacity:1;stroke-width:0.158887"
       d="m 21.694291,13.525667 c -0.0014,-0.0044 -0.0059,-0.02271 -0.0098,-0.04082 -0.02268,-0.103419 -0.06594,-0.205175 -0.153522,-0.361092 -0.08763,-0.15599 -0.107185,-0.203965 -0.112534,-0.276022 -0.0094,-0.125934 0.05405,-0.247673 0.157917,-0.303242 0.127208,-0.06805 0.278308,-0.01962 0.354164,0.113507 0.03857,0.06769 0.05283,0.150362 0.03889,0.225473 -0.0082,0.04461 -0.03731,0.115807 -0.07444,0.182492 -0.08291,0.148926 -0.101199,0.183525 -0.122155,0.231169 -0.02831,0.06435 -0.05096,0.1307 -0.06516,0.190925 -0.0059,0.02502 -0.0119,0.04195 -0.01333,0.03762 z m 0.02402,-0.594046 c 0.0488,-0.01199 0.08231,-0.06576 0.07709,-0.123713 -0.0097,-0.108021 -0.13662,-0.140111 -0.184545,-0.04667 -0.0351,0.06843 -0.0036,0.152123 0.0644,0.17109 0.0195,0.0054 0.01793,0.0055 0.04305,-7.36e-4 z"
       id="path161" /><ellipse
       style="fill:#ffffff;fill-opacity:1;stroke:#e3e3e3;stroke-width:0;stroke-linejoin:round;stroke-dasharray:none;stroke-dashoffset:0;stroke-opacity:1"
       id="ellipse161"
       cx="21.697414"
       cy="12.821358"
       rx="0.11225746"
       ry="0.12201899" /></g><g
     id="g162"
     transform="matrix(1.6528304,0,0,1.3021723,-24.726438,-10.818269)"><path
       style="fill:#ff1515;fill-opacity:1;stroke-width:0.158887"
       d="m 21.694291,13.525667 c -0.0014,-0.0044 -0.0059,-0.02271 -0.0098,-0.04082 -0.02268,-0.103419 -0.06594,-0.205175 -0.153522,-0.361092 -0.08763,-0.15599 -0.107185,-0.203965 -0.112534,-0.276022 -0.0094,-0.125934 0.05405,-0.247673 0.157917,-0.303242 0.127208,-0.06805 0.278308,-0.01962 0.354164,0.113507 0.03857,0.06769 0.05283,0.150362 0.03889,0.225473 -0.0082,0.04461 -0.03731,0.115807 -0.07444,0.182492 -0.08291,0.148926 -0.101199,0.183525 -0.122155,0.231169 -0.02831,0.06435 -0.05096,0.1307 -0.06516,0.190925 -0.0059,0.02502 -0.0119,0.04195 -0.01333,0.03762 z m 0.02402,-0.594046 c 0.0488,-0.01199 0.08231,-0.06576 0.07709,-0.123713 -0.0097,-0.108021 -0.13662,-0.140111 -0.184545,-0.04667 -0.0351,0.06843 -0.0036,0.152123 0.0644,0.17109 0.0195,0.0054 0.01793,0.0055 0.04305,-7.36e-4 z"
       id="path162" /><ellipse
       style="fill:#ffffff;fill-opacity:1;stroke:#e3e3e3;stroke-width:0;stroke-linejoin:round;stroke-dasharray:none;stroke-dashoffset:0;stroke-opacity:1"
       id="ellipse162"
       cx="21.697414"
       cy="12.821358"
       rx="0.11225746"
       ry="0.12201899" /></g><path
     d="m 10.708375,9.5532258 -0.137285,0.170591 0.137285,0.2843162 0.09154,-0.1137262 z"
     fill="#f2f2f2"
     stroke="none"
     id="path6"
     style="stroke-width:0.0510121" /><path
     d="m 2.3232373,10.819421 -0.015368,0.057 0.016205,0.06871 0.395045,0.290696 0.2329603,0.07342 0.1791221,0.131637 0.1794927,0.08433 0.3097128,0.165551 0.2905258,0.16838 0.1497029,0.122019 0.1854458,0.09585 0.1304327,0.111583 0.092323,0.059 0.066025,0.107575 0.03985,0.08356 0.031268,0.181052 0.050173,0.237449 0.1209545,0.373354 0.2659614,0.252109 0.1553181,0.08842 0.1025256,0.03601 0.102397,-0.01816 c 0.0814,-1.73e-4 0.2816556,-0.04184 0.2816556,-0.04184 -7.045e-4,0.01093 0.2092982,-0.0591 0.2745755,-0.06208 l 0.1549098,-0.05096 0.2240373,-0.01035 0.00589,-0.0014 0.028416,-0.0059 0.6847569,-0.03013 0.1514259,0.008 0.1237408,-0.0096 1.0632552,0.286245 0.047719,0.0057 0.070177,-0.0063 0.5505745,0.03822 0.1645496,-0.0055 0.130973,-0.05424 1.2516139,-0.56332 0.398757,0.416572 1.364653,1.483354 0.288979,-0.05667 0.496299,-0.132103 0.16197,-0.0618 -0.005,-0.0019 0.21405,-0.09058 -0.0053,0.0019 0.409953,-0.166462 0.378901,-0.139451 1.042903,-0.293661 0.340102,-1.242691 -2.771182,0.676355 -0.14167,-0.05287 -0.07657,-0.07851 -0.06912,-0.08066 -0.138118,-0.145923 -0.0584,-0.101116 0.01373,-0.0716 0.132186,-0.06972 0.07883,-0.02849 0.856008,-0.295969 0.268667,-0.09175 0.07415,-0.04743 0.360778,-0.43997 -1.332065,-0.223414 -0.190488,0.02646 -1.251213,0.616144 -2.5789843,0.350428 -0.3876847,-0.07219 -1.32903,-0.741835 1.3663684,0.881983 0.8792047,-0.184078 0.02074,-0.997752 -0.09321,-1.046786 -0.8907911,0.204369 0.082085,0.02496 0.8993581,-0.174116 -0.282964,-1.1964362 0.03815,-0.167872 -0.1338808,0.216561 0.1812968,0.5904152 0.04177,0.23021 -0.5759072,2.563376 2.9863531,-0.372123 -0.337329,-0.212482 0.104815,-0.162959 -0.585016,-1.09508 -0.173044,-0.601851 -0.405477,-0.5976022 -0.6959369,-0.653536 0.04172,0.225961 0.6159639,0.9938392 1.189299,2.051795 1.206416,-0.551626 1.419099,0.125576 0.288277,-0.07561 1.800956,0.02877 0.329691,-0.784153 -1.255625,-0.4195 -1.141885,-0.8931312 -0.55279,-1.1353717 -0.8672,-1.3639688 -0.500645,-0.1016081 -0.247374,0.03201 -1.66013,0.1129449 -0.0031,0.4613432 -0.116845,0.6604552 -0.01535,-0.1765107 -0.1808669,-0.021283 -0.340922,0.694128 0.37364,-0.668034 -0.39739,-0.1666919 -0.267978,0.7969959 0.143714,0.06396 c 0.07661,-0.679073 0.43231,-0.2653157 0.5571479,-0.3063452 L 11.97559,7.4545883 11.839503,7.253095 c 0,0 -0.66181,-0.5181728 -0.660181,-0.5153913 l -0.008,-0.00569 -0.152329,-0.03647 -0.115018,-0.03979 L 9.2399391,5.0858557 8.9428667,4.889814 8.5450653,4.8275345 7.8740389,5.1503047 7.1828492,3.3817688 l 0.00249,0.00229 -0.054675,0.031504 -0.1272476,0.082613 -0.090866,0.045753 -0.096581,0.072149 -0.2058937,0.125715 -0.1236473,0.095729 -0.1635765,0.1469191 -0.2152029,0.172472 -0.1430216,0.1324734 -0.208767,0.1941294 0.1395661,0.1464887 0.160845,0.1304373 0.8689879,0.6227708 0.2108226,0.1410248 0.1446201,0.1080329 -0.6595078,0.9021223 -0.00295,0.8556898 0.2631761,0.6070825 c 0,0 0.097938,0.517579 0.079324,0.4777941 l -0.00365,0.3832663 0.1011521,0.166598 -0.00555,0.05551 -0.01388,0.06589 -0.025306,0.113365 -0.020879,0.07491 -0.033693,0.08183 -1.021565,0.403937 -0.2313359,0.1809112 -0.4230338,0.31394 -0.5937199,0.06571 -1.8988348,-0.188092 z"
     fill="#f2f2f2"
     stroke="none"
     id="path14"
     style="fill:#c9d9e8;fill-opacity:0.255892;stroke-width:0.040088;stroke-dasharray:none"
     sodipodi:nodetypes="cccccccccccccccccccccccccccccccccccccccccccccccccccccccccccccccccccccccccccccccccccccccccccccccccccccccccccccccccccccccccccccccccccccccccccccccccccccccccccccc" /><path
     d="m 2.4351374,10.012788 c -0.032133,0.25293 -0.2346125,0.556444 0.064282,0.927405 0.2988903,0.370962 1.365897,0.927405 1.7354935,1.306797 0.3695936,0.379391 0.3053169,0.750355 0.4820797,0.969558 0.1767624,0.219206 0.073914,0.202345 0.5784973,0.337239 0.5045774,0.13492 1.7419187,0.434194 2.4425426,0.463701 0.7006254,0.02952 1.4526736,-0.358315 1.7676306,-0.295085 0.314961,0.06325 -0.0482,0.379395 0.128549,0.674477 0.176762,0.295084 0.6331319,0.918975 0.9320239,1.096025 0.298889,0.177049 0.289249,0.113827 0.867745,-0.04215 0.5785,-0.155972 1.854405,-0.57752 2.60324,-0.88525 0.74883,-0.307731 1.520157,-0.746138 1.896183,-0.969559 0.376021,-0.22342 0.234613,-0.08432 0.353526,-0.379395 0.118919,-0.29508 0.183192,-1.011713 0.353526,-1.391104 0.170334,-0.379392 0.562429,-0.644967 0.674913,-0.885248 0.11249,-0.240284 0.05787,-0.337239 0,-0.548013 -0.05785,-0.210778 -0.08676,-0.5564472 -0.353524,-0.7166362 -0.266753,-0.160188 -0.98023,-0.286653 -1.253411,-0.252928 -0.273179,0.03373 -0.24104,0.484779 -0.385665,0.463702 -0.144623,-0.021085 -0.379238,-0.328812 -0.482081,-0.590171 -0.102843,-0.26136 0.08035,-0.5985977 -0.128554,-0.9695591 C 14.503231,7.9556364 13.812248,7.4329175 13.587278,7.0619557 13.362305,6.6909939 13.474791,6.3537561 13.362305,6.0923965 13.24982,5.8310369 13.034491,5.7888824 12.912365,5.50223 12.790236,5.2155777 12.67132,4.7012898 12.623114,4.3640517 c -0.0482,-0.3372378 0.07392,-0.6829065 0,-0.8852494 -0.07392,-0.202343 -0.321387,-0.282437 -0.449943,-0.3372378 -0.128547,-0.054802 -0.199258,-0.1180338 -0.321387,0 -0.122118,0.1180323 -0.29889,0.5901662 -0.417804,0.7166304 -0.118934,0.1264657 0.01607,0.1053857 -0.289247,0.042154 C 10.839415,3.8371157 10.093795,3.5083099 9.6020741,3.4788015 9.1103521,3.4492925 8.5093558,3.7949621 8.1879701,3.73173 7.8665828,3.6684979 8.0272765,3.2132269 7.6737493,3.0994088 7.3202251,2.9855907 6.404271,2.9012815 6.0668131,3.0572533 5.7293574,3.2132262 5.7872076,3.4914473 5.6490094,4.0268127 5.5108136,4.5621778 5.2890575,5.468505 5.2312063,6.2610145 5.1733592,7.0535237 5.4143971,8.271796 5.2954883,8.7902997 5.1765696,9.3088028 4.9033951,9.3256648 4.5241585,9.3804658 4.1449161,9.4352698 3.3189513,9.1191078 3.0136342,9.1275388 c -0.3053186,0.0084 -0.2249706,0.147541 -0.3213871,0.295083 -0.096416,0.147541 -0.224972,0.337238 -0.2571097,0.5901662 z"
     fill="none"
     stroke="#e03020"
     stroke-width="0.0736153"
     stroke-linejoin="round"
     stroke-linecap="round"
     id="path40"
     style="stroke:#ffffff;stroke-opacity:1" /><path
     style="fill:none;fill-opacity:0.299663;stroke:#ffffff;stroke-width:0.174566;stroke-linejoin:round;stroke-dasharray:none;stroke-opacity:1"
     d="m 17.815903,11.614044 c -0.18758,0.003 -1.913052,-0.007 -2.086354,0.06344 -0.150147,0.061 -0.338719,0.118153 -0.489482,0.151779 -0.08249,0.0184 -0.168079,0.08009 -0.249815,0.105428 -0.0326,0.01011 -0.06939,-0.01577 -0.102014,-0.0057 -0.01227,0.0038 -0.01845,0.02434 -0.03059,0.02812 -0.01725,0.0053 -0.03373,-0.0067 -0.05098,-0.0028 -0.07386,0.01647 -0.145599,0.06087 -0.219238,0.0773 -0.06854,0.01528 -0.140515,0.009 -0.20908,0.01822 -0.05478,0.0073 -0.108371,0.0413 -0.16316,0.05059 -0.05877,0.0099 -0.11981,-0.02299 -0.178503,-0.0099 -0.212966,0.0475 -0.453779,0.0279 -0.627347,-0.09444 -0.02903,-0.02047 -0.03671,-0.06619 -0.06125,-0.09286 -0.04158,-0.04518 -0.08843,-0.08439 -0.132683,-0.126645 -0.05073,-0.04842 -0.04617,-0.157992 -0.122514,-0.185724 -0.121783,-0.04423 -0.295404,-0.0095 -0.397842,-0.08171 -0.01836,-0.01295 -0.05815,0.0087 -0.07648,-0.0042 -0.05192,-0.0366 -0.08152,-0.112177 -0.127613,-0.156184 0.01213,-0.05583 -0.05614,-0.02299 -0.07141,-0.03378 -0.04999,-0.03521 -0.08239,-0.113015 -0.127613,-0.156183 -0.08586,-0.08197 -0.207011,-0.162473 -0.295949,-0.225165 -0.0533,-0.03759 -0.0748,-0.118944 -0.127613,-0.156185 -0.06671,-0.04702 -0.145321,-0.08587 -0.209183,-0.130887 -0.04543,-0.032 -0.122909,-0.03697 -0.168347,-0.06898 -0.07019,-0.04948 -0.134845,-0.111602 -0.204108,-0.160427 -0.0364,-0.02563 -0.04896,-0.09258 -0.08169,-0.123816 -0.04993,-0.04763 -0.113455,-0.04303 -0.168341,-0.06898 -0.0213,-0.01005 -0.02148,-0.04827 -0.04088,-0.06192 -0.0355,-0.02501 -0.08185,-0.04113 -0.117342,-0.06615 -0.05075,-0.03578 -0.0044,-0.01875 -0.0153,-0.06049 -0.0091,-0.03629 -0.05206,-0.05657 -0.06127,-0.09286 -0.01737,-0.06853 -0.02733,-0.153163 -0.06642,-0.212432 -0.03812,-0.05777 -0.0226,-0.05017 -0.03068,-0.120986 -0.0088,-0.07757 -0.119343,-0.266287 -0.178711,-0.308127 -0.01345,-0.0096 -0.04138,0.01178 -0.05099,-0.0028 -0.0046,-0.0072 0.0099,-0.02223 0.0051,-0.02954 -0.008,-0.01227 -0.09672,-0.05162 -0.117326,-0.06616 -0.01838,-0.01295 -0.05815,0.0087 -0.07648,-0.0042 0.04877,-0.23528 -0.173428,-0.03944 -0.173428,-0.03944 0,0 -0.07446,0.06259 -0.1172087,0.08296 -0.07526,0.03585 -0.13074,0.05409 -0.211737,0.06781 -0.01727,0.0029 -0.09738,0.02804 -0.114564,0.03337 -0.03527,0.01094 0.0292,-0.01945 -0.005,0.0022 -0.09642,0.0411 0.03472,-0.02909 -0.219983,0.114409 0,0 0.9712447,-0.398916 -0.0094,0.04931 -0.160227,0.07631 -0.338279,0.339085 -0.4536051,0.392339 -0.00833,0.004 0.1387901,-0.105481 0.1316021,-0.09889 -0.0073,0.0066 -0.1569727,0.118409 -0.1622501,0.127008 -0.1946585,0.1822992 -0.084204,0.07141 -0.1222944,0.1125012 -0.078096,0.08409 -0.066349,0.1009 -0.1375337,0.201122 -0.094504,0.133083 -0.2380181,0.25592 -0.3669474,0.337503 -0.0186,0.0089 -0.037375,0.01781 -0.056077,0.02671 -0.00833,-4.74e-4 -0.017168,-0.0054 -0.02551,-0.0014 -0.056326,0.02686 -0.1117598,0.09595 -0.1733044,0.109671 -0.017212,0.0039 -0.033795,-0.0082 -0.050963,-0.0028 -0.035008,0.01087 -0.082245,0.0721 -0.1172389,0.08296 -0.017139,0.0054 -0.033795,-0.0082 -0.050978,-0.0028 -0.080258,0.02488 -0.1678633,0.115554 -0.2548997,0.134967 -0.1871177,0.04174 -0.3792675,0.105891 -0.565976,0.147535 -0.069402,0.01548 -0.1336618,0.08179 -0.1988197,0.108262 -0.034964,0.01421 -0.07212,0.0097 -0.1070755,0.02388 -0.030572,0.01244 -0.056081,0.04242 -0.086649,0.05484 -0.095939,0.03899 -0.19984,0.02738 -0.2957542,0.07306 -0.095566,0.04545 -0.2044633,0.11492 -0.3060394,0.132142 -0.317516,0.0538 -0.6330959,0.02453 -0.9536706,0.0068 -0.324601,-0.01809 -0.6518461,-0.03395 -0.9590418,-0.112916 -0.075728,-0.01959 -0.1378852,-0.08398 -0.2142602,-0.101355 -0.032694,-0.0074 -0.069307,0.0018 -0.1019615,-0.0057 -0.1075987,-0.02456 -0.241284,-0.104042 -0.3316038,-0.167715 -0.1107001,-0.07796 -0.2013041,-0.151502 -0.3265432,-0.196982 -0.095874,-0.03481 -0.1661394,-0.09956 -0.2601879,-0.133716 -0.031364,-0.01134 -0.071891,0.0086 -0.1019733,-0.0057 -0.010637,-0.005 -0.00973,-0.02591 -0.02042,-0.03095 -0.022838,-0.01084 -0.079969,0.0099 -0.1019747,-0.0057 -0.00995,-0.0068 -0.010695,-0.02413 -0.02042,-0.03095 -0.0191,-0.0135 -0.089048,0.01398 -0.1019733,-0.0057 -0.00484,-0.0073 0.010052,-0.02222 0.00507,-0.02955 -0.00967,-0.01463 -0.037304,0.0069 -0.051016,-0.0028 -0.026754,-0.01883 -0.039615,-0.04447 -0.066332,-0.06331 -0.4053687,-0.03663 -0.064518,0.0053 -0.074138,-0.0093 -0.090776,-0.0095 -0.7063827,-0.100949 -0.7777081,-0.125273"
     id="path46"
     sodipodi:nodetypes="cssscccscccscssscccsccssscssccccscccscccccccccccccccccsccsscccssssccssccccccccccc" /><path
     style="fill:none;fill-opacity:1;stroke:#ffffff;stroke-width:0.199405;stroke-linejoin:round;stroke-dasharray:none;stroke-opacity:1"
     d="m 12.351978,1.996719 c 0.004,0.7994248 0.0364,1.4820583 -0.08521,2.2438222 -0.0089,0.055438 0.0089,0.1159904 0,0.171428 -0.02929,0.1836545 -0.07512,0.3690023 -0.109393,0.5571454 -0.04737,0.2597206 -0.04422,0.5726202 -0.136759,0.8142897 -0.01329,0.03464 -0.04144,0.051067 -0.0547,0.085713 -0.05453,0.1423347 -0.108896,0.5538394 -0.136759,0.7285755 -0.01762,0.1103739 -0.17089,0.610612 -0.218825,0.6857171 -0.01431,0.022586 -0.04248,0.017304 -0.0547,0.042857 -0.01731,0.03614 -0.01227,0.089831 -0.02736,0.1285737 -0.05868,0.1532137 -0.153641,0.3182526 -0.218825,0.4714306 -0.02947,0.069308 -0.03784,0.1680802 -0.08207,0.2142859 -0.0151,0.015827 -0.03841,-0.012798 -0.0547,0 -0.05225,0.040908 -0.08452,0.1305183 -0.13676,0.1714263 -0.10371,0.081239 -0.208117,0.098754 -0.300881,0.1714279 -0.04376,0.034284 -0.12035,-0.034284 -0.164123,0 -0.05143,0.040304 -0.241016,0.2838253 -0.273532,0.3857165 -0.0085,0.02647 -0.01722,0.155546 -0.02736,0.171426 -0.03645,0.05715 -0.02736,-0.07143 -0.02736,0.04286"
     id="path52"
     sodipodi:nodetypes="cccscccsccssccssssc" /><path
     style="fill:none;fill-opacity:0.861953;stroke:#ffffff;stroke-width:0.0746979;stroke-linejoin:round;stroke-dasharray:0.298793, 0.149397;stroke-dashoffset:0;stroke-opacity:1"
     d="m 5.8308949,3.2072247 c 0.084436,0.038141 0.2110242,0.090253 0.2856818,0.16712 0.015105,0.015557 0.0109,0.051285 0.025982,0.066846 0.030236,0.031129 0.070676,0.04121 0.1038947,0.066847 0.1315578,0.1015881 0.2143351,0.3155105 0.3376231,0.4345113 0.082561,0.079683 0.1432056,0.1566192 0.2077705,0.2673921 0.078008,0.1338466 0.1165375,0.294532 0.1817977,0.4345116 0.02741,0.058775 0.077132,0.1097397 0.1039138,0.1671198 0.014173,0.030214 0.011835,0.07006 0.025979,0.100271 0.032627,0.070021 0.09655,0.1291029 0.1298629,0.2005441 0.039859,0.085451 0.064055,0.1819418 0.1038698,0.2673915 0.043833,0.094049 0.1051411,0.180374 0.1558209,0.2673922 0.034278,0.058825 0.043629,0.1417207 0.07792,0.2005439 0.05203,0.089277 0.1040451,0.1784958 0.1558208,0.267392 0.068818,0.11811 0.1654729,0.2170904 0.23374,0.33424 0.079689,0.1367498 0.039873,0.1628367 0.077921,0.3342397 0.014465,0.065502 0.143758,0.1279741 0.1817979,0.1671199 0.071623,0.073719 0.1493905,0.1772177 0.2077688,0.2673919 0.032319,0.049907 0.042212,0.1211813 0.077921,0.16712 0.1327267,0.1708095 -0.036221,-0.1401475 0.1039137,0.1002725 0.011543,0.019931 0.01242,0.049232 0.025979,0.066847 0.030596,0.03939 0.073274,0.06088 0.1038699,0.1002724 0.026753,0.034409 0.025204,0.065864 0.051957,0.100271 0.063061,0.08118 0.038134,-0.00994 0.07792,0.066847 0.079645,0.1537625 0.1538352,0.3136842 0.2337439,0.4679355 0.03555,0.068615 0.07297,0.1521154 0.08846,0.2319039 0.0044,0.021622 -0.0056,0.00311 0.0154,0.1023345 0.004,0.014952 0.02048,0.019332 0.02598,0.033426 0.04462,0.11486 0.08994,0.2754133 0.103869,0.4010873 0.0048,0.04412 -0.0095,0.09084 0,0.133696 0.0085,0.03862 0.03965,0.06335 0.05194,0.100272 0.03448,0.103531 0.0198,0.197472 0.05195,0.300815 0.01154,0.0373 0.04208,0.06216 0.05194,0.100271 0.0056,0.02114 -0.0056,0.04571 0,0.06684 0.0038,0.01495 0.02209,0.01848 0.02598,0.03343 0.0056,0.02114 -0.0056,0.04571 0,0.06684 0.01052,0.04058 0.04405,0.09305 0.05194,0.133697 0.0062,0.03243 -0.0051,0.0675 0,0.1002712 0.0076,0.04886 0.04256,0.08536 0.05195,0.133699 0.0044,0.02162 -0.0044,0.04523 0,0.06684 0.0093,0.04834 0.04255,0.08536 0.05194,0.133698 0.02241,0.115295 0.04835,0.220032 0.07792,0.33424 0.01526,0.05884 -0.02099,0.146511 0,0.200544 0.02591,0.06667 0.07798,0.133869 0.103914,0.200545 0.0215,0.05531 0.06582,0.171671 0.07792,0.233967 0.0044,0.02161 -0.0056,0.0457 0,0.06685 0.013,0.05037 0.08007,0.121134 0.1038839,0.167119 0.07561,0.145981 -0.01155,-0.01093 0.02598,0.133699 0.01828,0.07058 0.110094,0.124234 0.129862,0.200544 0.0056,0.02113 -0.0056,0.0457 0,0.06685 0.02659,0.102661 0.104601,0.203306 0.129848,0.300815 0.0056,0.02114 -0.0056,0.0457 0,0.06685 0.0038,0.01497 0.02048,0.01932 0.02598,0.03342 0.01403,0.03568 -0.01402,0.03117 0,0.06685 0.02306,0.05933 0.05485,0.107774 0.07792,0.167113 0.0077,0.01994 -0.01241,0.05109 0,0.06685 0.006,0.0079 0.01983,-0.0079 0.02597,0 0.006,0.0079 -0.0038,0.02345 0,0.03342 0.01096,0.02819 0.04098,0.03866 0.05195,0.06685 0.0038,0.01 -0.006,0.02554 0,0.03342 0.0086,0.01104 0.08857,0.05698 0.103871,0.06685 0.05684,0.03656 0.09621,0.108125 0.155835,0.133696 0.01184,0.0052 0.180503,0.03175 0.181799,0.03344 0.006,0.0078 -0.006,0.02553 0,0.03344 0.02492,0.03211 0.123054,-0.02111 0.155822,0 0.09197,0.05921 0.193703,0.07453 0.285682,0.133699 0.07358,0.04732 0.858796,-0.0088 0.93496,-0.03344 0.194041,-0.06242 0.372088,-0.152149 0.545397,-0.300842 0.07123,-0.06111 0.162702,-0.07885 0.233743,-0.133694 0.02098,-0.01618 0.03095,-0.05063 0.05194,-0.06685 0.166503,-0.128566 0.415697,-0.146602 0.597338,-0.200545 0.144752,-0.04299 0.276237,-0.140784 0.415537,-0.200545 0.254833,-0.109324 0.540931,-0.07193 0.805106,-0.100271 0.516629,-0.05542 1.038906,-0.03342 1.55827,-0.03342"
     id="path59"
     sodipodi:nodetypes="csccscsccsccccccccccccccscccccccccccccccccsscccccccccccccccccccccccsccsssc" /><path
     style="fill:none;fill-opacity:1;stroke:none;stroke-width:0.100775;stroke-linejoin:round;stroke-dasharray:0.806202, 0.20155, 0.100775, 0.20155;stroke-dashoffset:0;stroke-opacity:1"
     d="m 9.5037661,6.9739128 c 0.013,0.054254 -0.013,0.1763189 0.03894,0.1627559 0.0519,-0.01356 -0.0519,-0.2170091 -0.03894,-0.1627559 0.02595,0.1085031 0.05464,0.2163331 0.07784,0.3255138 0.02944,0.1384968 -0.04275,0.3135782 0,0.4475815 0.0093,0.02877 0.02975,0.052608 0.03894,0.081378 0.01892,0.059175 -0.02634,0.1483852 0,0.2034469 0.03638,0.076058 0.09934,0.1936512 0.116787,0.2848253 0.0076,0.039899 -0.0095,0.082596 0,0.1220663 0.0042,0.018607 0.02595,0.027124 0.03891,0.04069 0.013,0.027124 0.03324,0.051638 0.03894,0.081381 0.01833,0.095883 0.01637,0.190684 0.03894,0.2848252 0.03071,0.128425 0.0981,0.229548 0.116786,0.366202 0.0203,0.1484 0.01537,0.299872 0.03894,0.447582 0.0092,0.05691 0.06877,0.146529 0.07784,0.203447 0.0207,0.129833 -0.03045,0.2795862 0,0.4068922 0.01616,0.06757 0.06025,0.107517 0.07784,0.162757 0.05028,0.157651 0.04827,0.345054 0.116785,0.48827 0.03223,0.06739 0.01329,0.326242 0.03894,0.406892 0.03765,0.118037 0.0076,0.227524 0.03894,0.325514 0.09101,0.285342 0.07784,0.711657 0.07784,1.017231 0,0.187578 0.0437,1.047925 0,1.1393 -0.04172,0.08718 -0.01892,0.120815 -0.03894,0.162748 -0.01637,0.03431 -0.05751,0.04945 -0.07784,0.08137 -0.0073,0.01136 0,0.02711 0,0.04069 -0.02594,0.04069 -0.04978,0.08294 -0.07784,0.122079 0.004,0.08061 -0.05733,0.01916 -0.07784,0.04069 -0.08055,0.08421 0.123069,-0.0033 -0.03894,0.08137 -0.01154,0.006 -0.02975,-0.0098 -0.03894,0 -0.0093,0.0098 0.0093,0.03109 0,0.04068 -0.01833,0.01917 -0.05949,-0.01916 -0.07784,0 -0.02603,0.02719 0.02602,0.05418 0,0.08137 -0.0094,0.0098 -0.02734,-0.006 -0.03894,0 -0.0093,0.0047 -0.186788,0.227719 -0.194636,0.244133 -0.0059,0.01208 0.0093,0.03109 0,0.04069 -0.0093,0.0098 -0.02975,-0.0098 -0.03894,0 -0.01637,0.0171 -0.02713,0.09741 -0.03894,0.122081 -0.02929,0.06123 -0.285469,0.332294 -0.350343,0.366202 -0.01154,0.006 -0.02975,-0.0098 -0.03894,0 -0.01951,0.02041 -0.01951,0.06102 -0.03892,0.08137 -0.02461,0.02573 -0.148193,0.06497 -0.194634,0.04069 -0.1321875,-0.06907 -0.5675818,-0.801083 -0.6228364,-0.935843 -0.021069,-0.05142 -0.025949,-0.108506 -0.038938,-0.162746 -0.025949,-0.06781 -0.049473,-0.136689 -0.077848,-0.203447 -0.040136,-0.0944 -0.072588,-0.192441 -0.1167861,-0.284824 -0.03568,-0.0746 -0.1167859,-0.01524 -0.1167859,-0.122067"
     id="path62" /><path
     style="fill:none;fill-opacity:1;stroke:#ffffff;stroke-width:0.0820556;stroke-linejoin:round;stroke-dasharray:0.164112, 0.164112;stroke-dashoffset:0;stroke-opacity:1"
     d="m 8.3275381,7.0150475 c 0.019812,0.1640344 0.013628,0.3287025 0.036824,0.4927946 0.024799,0.1748341 0.073199,0.353319 0.06926,0.5276268 -0.00734,0.3232786 -0.033725,0.6454935 1.482e-4,0.9714059 0.00779,0.07477 -0.042321,0.147134 -0.034548,0.221892 0.014975,0.143573 0.14174,0.265932 0.1643824,0.403139 0.013178,0.08007 0.040972,0.165906 0.075699,0.243168 0.01511,0.03337 -0.032332,0.07756 -0.017267,0.110945 0.055498,0.1234752 -0.040702,0.2383552 -0.019422,0.3676642 0.026371,0.160106 0.098043,0.319369 0.1146349,0.479265 0.011231,0.04837 -0.026641,0.09101 -0.021579,0.138683 0.017431,0.167358 0.00973,0.32841 0.036809,0.492793 0.021145,0.128253 -0.041676,0.290622 -0.028033,0.423138 0.00209,0.02129 0.024574,0.04124 0.028078,0.06257 0.013628,0.08187 -0.020022,0.144773 0.00225,0.228981 0.00854,0.03146 -0.081136,0.618498 -0.099345,0.637937 -0.1704548,0.181667 -0.4740777,0.08253 -0.7783147,0.135484 -0.023241,0.0041 -0.050272,-0.01828 -0.073498,-0.01418 -0.056935,0.0099 -0.1698214,0.05657 -0.2378221,0.06833 -0.028528,0.0051 -0.089716,0.03254 -0.1189028,0.03416 -0.024154,0.0015 -0.049313,-0.01572 -0.073498,-0.01418 -0.049208,0.0027 -0.1108014,0.05207 -0.1599738,0.05479 -0.024199,0.0015 -0.049344,-0.01557 -0.073498,-0.01418 -0.059316,0.0034 -0.1294903,0.04403 -0.1967586,0.04771 -0.1161026,0.0066 -0.2398785,0.02827 -0.3480809,0.0471 -0.092194,0.0161 -0.1866875,0.07299 -0.2789076,0.08895 -0.2642283,0.04598 -0.4248404,0.03231 -0.7156703,-0.02384 -0.058617,-0.01133 -0.1725858,-0.01343 -0.2205387,-0.04256 -0.135079,-0.08187 -0.2676688,-0.183323 -0.4151416,-0.251562 -0.058973,-0.02732 -0.124541,-0.06029 -0.1751495,-0.09093 -0.029185,-0.0176 -0.033296,-0.05505 -0.064875,-0.06963 -0.022302,-0.01051 -0.051165,-0.0039 -0.073508,-0.01418 -0.065978,-0.03051 -0.17244,-0.10834 -0.166511,-0.146409"
     id="path63" /><g
     id="g67"
     transform="matrix(1.2522861,0,0,1.3165472,-13.411211,-2.3705862)"><g
       id="g66"
       transform="matrix(1.0000169,0,0,0.96942337,18.820437,1.7428901)"><ellipse
         style="fill:none;fill-opacity:1;stroke:#ff2b1c;stroke-width:0.00824165;stroke-dasharray:none;stroke-opacity:1"
         id="ellipse64"
         cx="4.8915577"
         cy="4.3521619"
         rx="3.9228547"
         ry="3.8129539" /><ellipse
         style="fill:none;fill-opacity:1;stroke:#ff2d1e;stroke-width:0.0255114;stroke-dasharray:none;stroke-opacity:1"
         id="ellipse65"
         cx="4.9024353"
         cy="4.3402004"
         rx="3.3222313"
         ry="3.2310462" /><ellipse
         style="fill:none;fill-opacity:1;stroke:#ff2b1c;stroke-width:0.0600168;stroke-dasharray:none;stroke-opacity:1"
         id="ellipse66"
         ry="2.5815618"
         rx="2.7124193"
         cy="4.3596215"
         cx="4.8910575" /><path
         id="path66"
         style="fill:#ff2c20;fill-opacity:1;stroke:none;stroke-width:0.121943;stroke-opacity:1"
         d="m 4.8631635,2.2741409 c -0.9925343,0.011106 -1.9050431,0.6984272 -2.1104048,1.6612063 -0.065053,0.3049717 -0.065053,0.4975544 0,0.8025247 0.1704048,0.7988938 0.8370031,1.4405159 1.6877397,1.6241667 0.2555993,0.055175 0.799036,0.036971 1.0489441,-0.035044 C 6.7888529,5.9525295 7.4353111,4.6096132 6.8667559,3.4653821 6.5712439,2.870657 5.9887285,2.4443266 5.2916707,2.3119764 5.1484492,2.2847853 5.0049541,2.2725542 4.8631635,2.2741409 Z m 0.071759,0.6487913 h 0.00253 0.00294 0.00334 0.00456 0.0079 0.012515 c 0.00213,0 0.00375,5.926e-4 0.00497,0.00123 l 4.134e-4,3.561e-4 h 4.145e-4 4.145e-4 v 3.553e-4 h 4.145e-4 v 3.553e-4 h 0.2574437 l -0.021281,0.635249 c -0.011898,0.3492844 -0.030929,0.7867743 -0.042137,0.9721947 l -0.02044,0.3369401 H 4.8914859 4.6344659 L 4.6144411,4.4542121 c -0.00355,-0.074027 -0.00831,-0.1700949 -0.012931,-0.2764035 -0.00142,-0.003 -0.00213,-0.00662 -0.00213,-0.011152 v -0.015137 -0.00996 -0.00797 -0.00439 c -5.523e-4,-9.249e-4 -8.887e-4,-0.00178 -0.00122,-0.00277 -8.076e-4,-0.002 -0.00152,-0.00431 -0.00172,-0.0064 -1.004e-4,-0.00116 1.52e-5,-0.00247 0,-0.00354 v -3.561e-4 c -4.67e-5,-0.00431 8.066e-4,-0.00817 0.00213,-0.011152 C 4.5896534,3.8993346 4.5801274,3.66685 4.5731249,3.4820746 L 4.5518536,2.9252368 h 0.1598028 c 0.00375,-3.56e-4 0.0078,-5.927e-4 0.011684,-8.478e-4 0.00203,-7.7e-5 0.00385,2.62e-5 0.00578,0 0.00162,-1.04e-4 0.00365,2.374e-4 0.00497,8.478e-4 h 0.019194 c 0.00659,-5.927e-4 0.013002,-0.00116 0.019609,-0.00123 0.00294,0 0.00618,5.48e-5 0.00872,0.00123 h 0.1105689 0.037556 c 0.00142,-9.248e-4 0.00274,-0.00178 0.00497,-0.00239 z M 4.8894415,5.1329615 C 5.2009712,5.1228185 5.3977964,5.5583826 5.1009822,5.7789635 5.0123502,5.8448365 4.8609153,5.8578465 4.736314,5.8104235 4.5710855,5.7475415 4.4922411,5.4713135 4.5902793,5.2982414 4.6153813,5.2539334 4.6872813,5.1945671 4.750082,5.1664123 4.798178,5.1448483 4.844936,5.1344053 4.8894415,5.1329553 Z" /></g></g></svg>
